<?xml version="1.0" standalone="yes"?>
<svg xmlns="http://www.w3.org/2000/svg" width="238" height="47">
<path style="fill:#fafafa; stroke:none;" d="M0 0L0 47L238 47L238 0L0 0z"/>
<path style="fill:#db903a; stroke:none;" d="M4 10L4 34C6.34856 28.4031 6.34856 15.5969 4 10z"/>
<path style="fill:#000000; stroke:none;" d="M5 10L5 34L7 34L7 17C12.8547 21.8513 14.3626 31.7403 22 34L22 10L20 10L20 27C14.6758 21.8376 13.0127 11.3033 5 10z"/>
<path style="fill:#0066b6; stroke:none;" d="M9 10L10 11L9 10z"/>
<path style="fill:#ffffb6; stroke:none;" d="M18 10L18 25C19.7404 20.8523 19.7404 14.1477 18 10z"/>
<path style="fill:#660000; stroke:none;" d="M19 10L19 27C20.8826 22.5135 20.8826 14.4865 19 10z"/>
<path style="fill:#3a90db; stroke:none;" d="M22 10L22 34C24.3486 28.4031 24.3486 15.5969 22 10z"/>
<path style="fill:#660000; stroke:none;" d="M33 10L34 11L33 10z"/>
<path style="fill:#000000; stroke:none;" d="M26 34C30.276 31.5544 33.2242 27.3845 38.8711 29.5988C41.626 30.679 43.0996 33.0846 46 34C44.665 28.2294 42.583 22.6034 40.6659 17.0008C39.9545 14.9217 39.2296 11.4744 36.777 10.7515C34.0619 9.95127 32.7905 13.0639 32.0154 15.0193C29.5959 21.1234 26.9619 27.4866 26 34z"/>
<path style="fill:#003a90; stroke:none;" d="M38 10L39 11L38 10z"/>
<path style="fill:#ffb666; stroke:none;" d="M49 10L49 34C51.3486 28.4031 51.3486 15.5969 49 10z"/>
<path style="fill:#000000; stroke:none;" d="M50 10L50 34L53 34L53 25C55.4841 25.0294 58.3374 24.7679 60.3009 26.6034C63.1761 29.291 62.9326 32.607 67 34C66.4936 31.1363 64.7915 27.9166 65.3086 25C65.9341 21.4724 68.687 18.8648 67.2423 15.0548C64.7744 8.54662 55.4858 10 50 10z"/>
<path style="fill:#3a3a3a; stroke:none;" d="M62 10L63 11L62 10z"/>
<path style="fill:#6690b6; stroke:none;" d="M63 10L64 11L63 10z"/>
<path style="fill:#ffb666; stroke:none;" d="M72 10L72 34C74.3486 28.4031 74.3486 15.5969 72 10z"/>
<path style="fill:#000000; stroke:none;" d="M73 10L73 34L87 34L87 30L76 30L76 10L73 10z"/>
<path style="fill:#00003a; stroke:none;" d="M76 10L76 30C78.0866 25.0273 78.0866 14.9727 76 10z"/>
<path style="fill:#90dbff; stroke:none;" d="M77 10L77 30C79.0866 25.0273 79.0866 14.9727 77 10z"/>
<path style="fill:#660000; stroke:none;" d="M96 10L97 11L96 10z"/>
<path style="fill:#000000; stroke:none;" d="M89 34C93.276 31.5544 96.2242 27.3845 101.871 29.5988C104.626 30.679 106.1 33.0846 109 34C107.665 28.2295 105.583 22.6034 103.666 17.0008C102.954 14.9217 102.23 11.4744 99.777 10.7515C97.0619 9.95127 95.7905 13.0639 95.0154 15.0193C92.5959 21.1234 89.9619 27.4866 89 34z"/>
<path style="fill:#003a90; stroke:none;" d="M101 10L102 11L101 10z"/>
<path style="fill:#e1a9d5; stroke:none;" d="M121 10L121 34C123.349 28.4031 123.349 15.5969 121 10z"/>
<path style="fill:#3f48cc; stroke:none;" d="M122 10L122 34L137 34L137 30L125 30L125 23L134 23L134 19L125 19L125 14L136 14L136 10L122 10z"/>
<path style="fill:#3f6ae6; stroke:none;" d="M136 10L136 14C136.71 12.2405 136.71 11.7595 136 10z"/>
<path style="fill:#c4a9dd; stroke:none;" d="M153 10L154 11L153 10z"/>
<path style="fill:#856ad5; stroke:none;" d="M154 10L155 11L154 10z"/>
<path style="fill:#3f48cc; stroke:none;" d="M148 28C151.809 35.619 168.244 36.0005 165.667 25.0432C164.751 21.1518 161.261 20.5218 158.024 19.3202C156.752 18.8483 154.224 18.0351 154.631 16.1744C155.353 12.8775 162.749 15.074 165 15C161.802 9.14437 149.296 8.23772 149.296 16.9861C149.296 23.5591 157.439 21.6133 160.364 25.4938C163.388 29.5048 156.117 29.7608 154.005 29.1559C151.792 28.5221 150.306 28.0234 148 28z"/>
<path style="fill:#858ae6; stroke:none;" d="M159.667 10.3333C159.222 10.7778 160.278 10.7222 160.333 10.6667C160.778 10.2222 159.722 10.2778 159.667 10.3333z"/>
<path style="fill:#ffc7dd; stroke:none;" d="M170 10L170 34C172.349 28.4031 172.349 15.5969 170 10z"/>
<path style="fill:#3f48cc; stroke:none;" d="M171 10L171 34L175 34L175 24L185 24L185 34L188 34L188 10L185 10L185 20L175 20L175 10L171 10z"/>
<path style="fill:#c4ffff; stroke:none;" d="M175 10L175 20C176.346 16.793 176.346 13.207 175 10z"/>
<path style="fill:#8548cc; stroke:none;" d="M184 10L184 20C185.346 16.793 185.346 13.207 184 10z"/>
<path style="fill:#85c7ff; stroke:none;" d="M188 10L188 34C190.349 28.4031 190.349 15.5969 188 10z"/>
<path style="fill:#c4a9dd; stroke:none;" d="M199 10L200 11L199 10z"/>
<path style="fill:#3f48cc; stroke:none;" d="M200.004 10.7569C187.906 15.1183 192.706 38.4893 205.957 32.9869C216.52 28.6006 212.683 6.18592 200.004 10.7569z"/>
<path style="fill:#648ae6; stroke:none;" d="M205 10L206 11L205 10z"/>
<path style="fill:#ffc7dd; stroke:none;" d="M216 10L216 34C218.349 28.4031 218.349 15.5969 216 10z"/>
<path style="fill:#3f48cc; stroke:none;" d="M217 10L217 34L221 34L221 24C224.225 23.9979 228.007 24.4287 230.941 22.821C235.312 20.4268 235.974 14.7606 231.852 11.7423C227.957 8.89044 221.551 10 217 10z"/>
<path style="fill:#a6a9ee; stroke:none;" d="M230 10L231 11L230 10z"/>
<path style="fill:#90dbff; stroke:none;" d="M10 11L11 12L10 11z"/>
<path style="fill:#ffb666; stroke:none;" d="M32 11L33 12L32 11z"/>
<path style="fill:#90dbff; stroke:none;" d="M39 11L40 12L39 11z"/>
<path style="fill:#3a66b6; stroke:none;" d="M65 11L66 12L65 11z"/>
<path style="fill:#ffb666; stroke:none;" d="M95 11L96 12L95 11z"/>
<path style="fill:#90dbff; stroke:none;" d="M102 11L103 12L102 11z"/>
<path style="fill:#c48ad5; stroke:none;" d="M151 11L152 12L151 11z"/>
<path style="fill:#a6e3ff; stroke:none;" d="M163 11L164 12L163 11z"/>
<path style="fill:#c48ad5; stroke:none;" d="M197 11L198 12L197 11z"/>
<path style="fill:#85a9f7; stroke:none;" d="M232 11L233 12L232 11z"/>
<path style="fill:#003a90; stroke:none;" d="M10 12L11 13L10 12z"/>
<path style="fill:#b66600; stroke:none;" d="M32 12L33 13L32 12z"/>
<path style="fill:#3a90db; stroke:none;" d="M39 12L40 13L39 12z"/>
<path style="fill:#0066b6; stroke:none;" d="M66 12L67 13L66 12z"/>
<path style="fill:#b66600; stroke:none;" d="M95 12L96 13L95 12z"/>
<path style="fill:#3a90db; stroke:none;" d="M102 12L103 13L102 12z"/>
<path style="fill:#a66acc; stroke:none;" d="M150 12L151 13L150 12z"/>
<path style="fill:#64a9f7; stroke:none;" d="M164 12L165 13L164 12z"/>
<path style="fill:#856acc; stroke:none;" d="M196 12L197 13L196 12z"/>
<path style="fill:#a6e3ff; stroke:none;" d="M209 12L210 13L209 12z"/>
<path style="fill:#64a9f7; stroke:none;" d="M233 12L234 13L233 12z"/>
<path style="fill:#66b6ff; stroke:none;" d="M11 13L12 14L11 13z"/>
<path style="fill:#660000; stroke:none;" d="M32 13L33 14L32 13z"/>
<path style="fill:#003a90; stroke:none;" d="M39 13L40 14L39 13z"/>
<path style="fill:#66b6ff; stroke:none;" d="M67 13L68 14L67 13z"/>
<path style="fill:#660000; stroke:none;" d="M95 13L96 14L95 13z"/>
<path style="fill:#003a90; stroke:none;" d="M102 13L103 14L102 13z"/>
<path style="fill:#c48acc; stroke:none;" d="M149 13L150 14L149 13z"/>
<path style="fill:#a6e3ff; stroke:none;" d="M165 13L166 14L165 13z"/>
<path style="fill:#a66acc; stroke:none;" d="M195 13L196 14L195 13z"/>
<path style="fill:#a6e3ff; stroke:none;" d="M234 13L235 14L234 13z"/>
<path style="fill:#000066; stroke:none;" d="M11 14L12 15L11 14z"/>
<path style="fill:#ffb666; stroke:none;" d="M31 14L32 15L31 14z"/>
<path style="fill:#66663a; stroke:none;" d="M35 14L36 15L35 14z"/>
<path style="fill:#90dbff; stroke:none;" d="M40 14L41 15L40 14z"/>
<path style="fill:#003a90; stroke:none;" d="M53 14L53 21C54.0595 18.4657 54.0595 16.5343 53 14z"/>
<path style="fill:#dbffff; stroke:none;" d="M54 14L54 21C55.0595 18.4657 55.0595 16.5343 54 14z"/>
<path style="fill:#fafafa; stroke:none;" d="M55 14L55 21C64.1172 20.7788 64.1172 14.2212 55 14z"/>
<path style="fill:#dbdbb6; stroke:none;" d="M61 14L62 15L61 14z"/>
<path style="fill:#663a00; stroke:none;" d="M62 14L63 15L62 14z"/>
<path style="fill:#003a90; stroke:none;" d="M67 14L68 15L67 14z"/>
<path style="fill:#ffb666; stroke:none;" d="M94 14L95 15L94 14z"/>
<path style="fill:#66663a; stroke:none;" d="M98 14L99 15L98 14z"/>
<path style="fill:#90dbff; stroke:none;" d="M103 14L104 15L103 14z"/>
<path style="fill:#3f6ae6; stroke:none;" d="M125 14L125 19C125.83 16.9695 125.83 16.0305 125 14z"/>
<path style="fill:#85c7f7; stroke:none;" d="M154 14L155 15L154 14z"/>
<path style="fill:#a68ad5; stroke:none;" d="M160 14L161 15L160 14z"/>
<path style="fill:#3f8aee; stroke:none;" d="M165 14L166 15L165 14z"/>
<path style="fill:#c48acc; stroke:none;" d="M194 14L195 15L194 14z"/>
<path style="fill:#a6c7f7; stroke:none;" d="M200 14L201 15L200 14z"/>
<path style="fill:#fafafa; stroke:none;" d="M201.225 14.8009C195.821 16.7838 196.843 31.4058 203.907 29.2878C210.538 27.2992 208.63 12.0838 201.225 14.8009z"/>
<path style="fill:#856acc; stroke:none;" d="M205 14L206 15L205 14z"/>
<path style="fill:#3f8aee; stroke:none;" d="M210 14L211 15L210 14z"/>
<path style="fill:#c4ffff; stroke:none;" d="M221 14L221 20C221.951 17.7147 221.951 16.2853 221 14z"/>
<path style="fill:#fafafa; stroke:none;" d="M222 14L222 20C230.795 19.8958 230.795 14.1042 222 14z"/>
<path style="fill:#856acc; stroke:none;" d="M229 14L230 15L229 14z"/>
<path style="fill:#3a90db; stroke:none;" d="M12 15L13 16L12 15z"/>
<path style="fill:#b66600; stroke:none;" d="M31 15L32 16L31 15z"/>
<path style="fill:#000066; stroke:none;" d="M34 15L35 16L34 15z"/>
<path style="fill:#b6db90; stroke:none;" d="M35 15L36 16L35 15z"/>
<path style="fill:#3a90db; stroke:none;" d="M40 15L41 16L40 15z"/>
<path style="fill:#903a00; stroke:none;" d="M63 15L64 16L63 15z"/>
<path style="fill:#66b6ff; stroke:none;" d="M68 15L68 20C68.8299 17.9695 68.8299 17.0305 68 15z"/>
<path style="fill:#b66600; stroke:none;" d="M94 15L95 16L94 15z"/>
<path style="fill:#000066; stroke:none;" d="M97 15L98 16L97 15z"/>
<path style="fill:#b6db90; stroke:none;" d="M98 15L99 16L98 15z"/>
<path style="fill:#3a90db; stroke:none;" d="M103 15L104 16L103 15z"/>
<path style="fill:#e1a9d5; stroke:none;" d="M148 15L148 19C148.71 17.2405 148.71 16.7595 148 15z"/>
<path style="fill:#648ae6; stroke:none;" d="M163 15L164 16L163 15z"/>
<path style="fill:#a66acc; stroke:none;" d="M206 15L207 16L206 15z"/>
<path style="fill:#85c7ff; stroke:none;" d="M211 15L212 16L211 15z"/>
<path style="fill:#a66acc; stroke:none;" d="M230 15L231 16L230 15z"/>
<path style="fill:#a6e3ff; stroke:none;" d="M235 15L235 19C235.71 17.2405 235.71 16.7595 235 15z"/>
<path style="fill:#90dbff; stroke:none;" d="M13 16L14 17L13 16z"/>
<path style="fill:#660000; stroke:none;" d="M31 16L32 17L31 16z"/>
<path style="fill:#0066b6; stroke:none;" d="M34 16L35 17L34 16z"/>
<path style="fill:#fafafa; stroke:none;" d="M35 16L32 25L39 25C37.95 21.7801 37.0322 18.7158 35 16z"/>
<path style="fill:#903a00; stroke:none;" d="M36 16L37 17L36 16z"/>
<path style="fill:#003a90; stroke:none;" d="M40 16L41 17L40 16z"/>
<path style="fill:#ffdb90; stroke:none;" d="M63 16L63 19C63.6961 17.4463 63.6961 17.5537 63 16z"/>
<path style="fill:#660000; stroke:none;" d="M94 16L95 17L94 16z"/>
<path style="fill:#0066b6; stroke:none;" d="M97 16L98 17L97 16z"/>
<path style="fill:#fafafa; stroke:none;" d="M98 16L95 25L102 25C100.95 21.7801 100.032 18.7158 98 16z"/>
<path style="fill:#903a00; stroke:none;" d="M99 16L100 17L99 16z"/>
<path style="fill:#003a90; stroke:none;" d="M103 16L104 17L103 16z"/>
<path style="fill:#c48acc; stroke:none;" d="M193 16L194 17L193 16z"/>
<path style="fill:#a6e3ff; stroke:none;" d="M198 16L199 17L198 16z"/>
<path style="fill:#e1a9d5; stroke:none;" d="M230.333 16.6667C230.278 16.7222 230.222 17.7778 230.667 17.3333C230.722 17.2778 230.778 16.2222 230.333 16.6667z"/>
<path style="fill:#000066; stroke:none;" d="M7 17L7 34C8.8826 29.5135 8.8826 21.4865 7 17z"/>
<path style="fill:#b6b666; stroke:none;" d="M8 17L9 18L8 17z"/>
<path style="fill:#0066b6; stroke:none;" d="M13 17L14 18L13 17z"/>
<path style="fill:#ffb666; stroke:none;" d="M30 17L31 18L30 17z"/>
<path style="fill:#66b6ff; stroke:none;" d="M34 17L35 18L34 17z"/>
<path style="fill:#ffb666; stroke:none;" d="M36 17L37 18L36 17z"/>
<path style="fill:#90dbff; stroke:none;" d="M41 17L42 18L41 17z"/>
<path style="fill:#ffb666; stroke:none;" d="M93 17L94 18L93 17z"/>
<path style="fill:#66b6ff; stroke:none;" d="M97 17L98 18L97 17z"/>
<path style="fill:#ffb666; stroke:none;" d="M99 17L100 18L99 17z"/>
<path style="fill:#90dbff; stroke:none;" d="M104 17L105 18L104 17z"/>
<path style="fill:#3f8aee; stroke:none;" d="M197 17L198 18L197 17z"/>
<path style="fill:#c48acc; stroke:none;" d="M207 17L208 18L207 17z"/>
<path style="fill:#b6ffff; stroke:none;" d="M8 18L8 34C9.81229 29.6811 9.81229 22.3189 8 18z"/>
<path style="fill:#b66600; stroke:none;" d="M9 18L10 19L9 18z"/>
<path style="fill:#66b6ff; stroke:none;" d="M14 18L15 19L14 18z"/>
<path style="fill:#b66600; stroke:none;" d="M30 18L31 19L30 18z"/>
<path style="fill:#000066; stroke:none;" d="M33 18L34 19L33 18z"/>
<path style="fill:#660000; stroke:none;" d="M37 18L38 19L37 18z"/>
<path style="fill:#3a90db; stroke:none;" d="M41 18L42 19L41 18z"/>
<path style="fill:#b66600; stroke:none;" d="M93 18L94 19L93 18z"/>
<path style="fill:#000066; stroke:none;" d="M96 18L97 19L96 18z"/>
<path style="fill:#660000; stroke:none;" d="M100 18L101 19L100 18z"/>
<path style="fill:#3a90db; stroke:none;" d="M104 18L105 19L104 18z"/>
<path style="fill:#85a9ee; stroke:none;" d="M154 18L155 19L154 18z"/>
<path style="fill:#e1a9d5; stroke:none;" d="M192.333 18.6667C192.278 18.7222 192.222 19.7778 192.667 19.3333C192.722 19.2778 192.778 18.2222 192.333 18.6667z"/>
<path style="fill:#a6e3ff; stroke:none;" d="M197.333 18.6667C197.278 18.7222 197.222 19.7778 197.667 19.3333C197.722 19.2778 197.778 18.2222 197.333 18.6667z"/>
<path style="fill:#64a9f7; stroke:none;" d="M212.333 18.6667C212.278 18.7222 212.222 19.7778 212.667 19.3333C212.722 19.2778 212.778 18.2222 212.333 18.6667z"/>
<path style="fill:#a66acc; stroke:none;" d="M230 18L231 19L230 18z"/>
<path style="fill:#ffdb90; stroke:none;" d="M9 19L10 20L9 19z"/>
<path style="fill:#003a90; stroke:none;" d="M14 19L15 20L14 19z"/>
<path style="fill:#660000; stroke:none;" d="M30 19L31 20L30 19z"/>
<path style="fill:#0066b6; stroke:none;" d="M33 19L34 20L33 19z"/>
<path style="fill:#b66600; stroke:none;" d="M37 19L38 20L37 19z"/>
<path style="fill:#003a90; stroke:none;" d="M41 19L42 20L41 19z"/>
<path style="fill:#903a00; stroke:none;" d="M63 19L64 20L63 19z"/>
<path style="fill:#660000; stroke:none;" d="M93 19L94 20L93 19z"/>
<path style="fill:#0066b6; stroke:none;" d="M96 19L97 20L96 19z"/>
<path style="fill:#b66600; stroke:none;" d="M100 19L101 20L100 19z"/>
<path style="fill:#003a90; stroke:none;" d="M104 19L105 20L104 19z"/>
<path style="fill:#64a9f7; stroke:none;" d="M134 19L134 23C134.71 21.2405 134.71 20.7595 134 19z"/>
<path style="fill:#a6a9ee; stroke:none;" d="M158 19L159 20L158 19z"/>
<path style="fill:#8548cc; stroke:none;" d="M208 19L208 25C208.951 22.7147 208.951 21.2853 208 19z"/>
<path style="fill:#856acc; stroke:none;" d="M229 19L230 20L229 19z"/>
<path style="fill:#b66600; stroke:none;" d="M10 20L11 21L10 20z"/>
<path style="fill:#3a90db; stroke:none;" d="M15 20L16 21L15 20z"/>
<path style="fill:#ffb666; stroke:none;" d="M29 20L30 21L29 20z"/>
<path style="fill:#90dbff; stroke:none;" d="M33 20L34 21L33 20z"/>
<path style="fill:#ffb666; stroke:none;" d="M37 20L38 21L37 20z"/>
<path style="fill:#66b6ff; stroke:none;" d="M42 20L43 21L42 20z"/>
<path style="fill:#dbdbb6; stroke:none;" d="M61 20L62 21L61 20z"/>
<path style="fill:#663a00; stroke:none;" d="M62 20L63 21L62 20z"/>
<path style="fill:#003a90; stroke:none;" d="M67 20L68 21L67 20z"/>
<path style="fill:#ffb666; stroke:none;" d="M92 20L93 21L92 20z"/>
<path style="fill:#90dbff; stroke:none;" d="M96 20L97 21L96 20z"/>
<path style="fill:#ffb666; stroke:none;" d="M100 20L101 21L100 20z"/>
<path style="fill:#66b6ff; stroke:none;" d="M105 20L106 21L105 20z"/>
<path style="fill:#a6c7f7; stroke:none;" d="M162 20L163 21L162 20z"/>
<path style="fill:#c48acc; stroke:none;" d="M192 20L192 24C192.71 22.2405 192.71 21.7595 192 20z"/>
<path style="fill:#c4ffff; stroke:none;" d="M197 20L197 23C197.696 21.4463 197.696 21.5537 197 20z"/>
<path style="fill:#3f8aee; stroke:none;" d="M212 20L212 24C212.71 22.2405 212.71 21.7595 212 20z"/>
<path style="fill:#a6e3ff; stroke:none;" d="M234 20L235 21L234 20z"/>
<path style="fill:#660000; stroke:none;" d="M11 21L12 22L11 21z"/>
<path style="fill:#000066; stroke:none;" d="M15 21L16 22L15 21z"/>
<path style="fill:#b66600; stroke:none;" d="M29 21L30 22L29 21z"/>
<path style="fill:#003a90; stroke:none;" d="M32 21L33 22L32 21z"/>
<path style="fill:#660000; stroke:none;" d="M38 21L39 22L38 21z"/>
<path style="fill:#0066b6; stroke:none;" d="M42 21L43 22L42 21z"/>
<path style="fill:#66b6ff; stroke:none;" d="M67 21L68 22L67 21z"/>
<path style="fill:#b66600; stroke:none;" d="M92 21L93 22L92 21z"/>
<path style="fill:#003a90; stroke:none;" d="M95 21L96 22L95 21z"/>
<path style="fill:#660000; stroke:none;" d="M101 21L102 22L101 21z"/>
<path style="fill:#0066b6; stroke:none;" d="M105 21L106 22L105 21z"/>
<path style="fill:#85c7f7; stroke:none;" d="M164 21L165 22L164 21z"/>
<path style="fill:#64a9f7; stroke:none;" d="M233 21L234 22L233 21z"/>
<path style="fill:#db903a; stroke:none;" d="M11 22L12 23L11 22z"/>
<path style="fill:#0066b6; stroke:none;" d="M16 22L17 23L16 22z"/>
<path style="fill:#ffdb90; stroke:none;" d="M28 22L29 23L28 22z"/>
<path style="fill:#3a90db; stroke:none;" d="M32 22L33 23L32 22z"/>
<path style="fill:#b66600; stroke:none;" d="M38 22L39 23L38 22z"/>
<path style="fill:#000066; stroke:none;" d="M42 22L43 23L42 22z"/>
<path style="fill:#3a90db; stroke:none;" d="M66 22L67 23L66 22z"/>
<path style="fill:#ffdb90; stroke:none;" d="M91 22L92 23L91 22z"/>
<path style="fill:#3a90db; stroke:none;" d="M95 22L96 23L95 22z"/>
<path style="fill:#b66600; stroke:none;" d="M101 22L102 23L101 22z"/>
<path style="fill:#000066; stroke:none;" d="M105 22L106 23L105 22z"/>
<path style="fill:#856acc; stroke:none;" d="M153 22L154 23L153 22z"/>
<path style="fill:#85c7f7; stroke:none;" d="M165 22L166 23L165 22M232 22L233 23L232 22z"/>
<path style="fill:#903a00; stroke:none;" d="M12 23L13 24L12 23z"/>
<path style="fill:#90dbff; stroke:none;" d="M17 23L18 24L17 23z"/>
<path style="fill:#db903a; stroke:none;" d="M28 23L29 24L28 23z"/>
<path style="fill:#90dbff; stroke:none;" d="M32 23L33 24L32 23z"/>
<path style="fill:#ffb666; stroke:none;" d="M38 23L39 24L38 23z"/>
<path style="fill:#66b6ff; stroke:none;" d="M43 23L44 24L43 23z"/>
<path style="fill:#66b6db; stroke:none;" d="M65 23L66 24L65 23z"/>
<path style="fill:#db903a; stroke:none;" d="M91 23L92 24L91 23z"/>
<path style="fill:#90dbff; stroke:none;" d="M95 23L96 24L95 23z"/>
<path style="fill:#ffb666; stroke:none;" d="M101 23L102 24L101 23z"/>
<path style="fill:#66b6ff; stroke:none;" d="M106 23L107 24L106 23z"/>
<path style="fill:#3f6ae6; stroke:none;" d="M125 23L125 30C126.059 27.4657 126.059 25.5343 125 23z"/>
<path style="fill:#c4c7e6; stroke:none;" d="M156 23L157 24L156 23z"/>
<path style="fill:#858ad5; stroke:none;" d="M157 23L158 24L157 23z"/>
<path style="fill:#a6e3ff; stroke:none;" d="M166 23L167 24L166 23M197 23L197 26C197.696 24.4463 197.696 24.5537 197 23z"/>
<path style="fill:#a6c7f7; stroke:none;" d="M230 23L231 24L230 23z"/>
<path style="fill:#ffb666; stroke:none;" d="M12 24L13 25L12 24z"/>
<path style="fill:#003a90; stroke:none;" d="M17 24L18 25L17 24z"/>
<path style="fill:#903a00; stroke:none;" d="M28 24L29 25L28 24z"/>
<path style="fill:#003a90; stroke:none;" d="M31 24L32 25L31 24z"/>
<path style="fill:#660000; stroke:none;" d="M39 24L40 25L39 24z"/>
<path style="fill:#0066b6; stroke:none;" d="M43 24L44 25L43 24z"/>
<path style="fill:#90dbff; stroke:none;" d="M64 24L65 25L64 24z"/>
<path style="fill:#903a00; stroke:none;" d="M91 24L92 25L91 24z"/>
<path style="fill:#003a90; stroke:none;" d="M94 24L95 25L94 24z"/>
<path style="fill:#660000; stroke:none;" d="M102 24L103 25L102 24z"/>
<path style="fill:#0066b6; stroke:none;" d="M106 24L107 25L106 24z"/>
<path style="fill:#3f48cc; stroke:none;" d="M138 24L138 27L147 27L147 24L138 24z"/>
<path style="fill:#c4ffff; stroke:none;" d="M147 24L147 27C147.696 25.4463 147.696 25.5537 147 24z"/>
<path style="fill:#64a9f7; stroke:none;" d="M166 24L167 25L166 24z"/>
<path style="fill:#c4ffff; stroke:none;" d="M175 24L175 34C176.346 30.793 176.346 27.207 175 24z"/>
<path style="fill:#8548cc; stroke:none;" d="M184 24L184 34C185.346 30.793 185.346 27.207 184 24z"/>
<path style="fill:#ffc7dd; stroke:none;" d="M192.333 24.6667C192.278 24.7222 192.222 25.7778 192.667 25.3333C192.722 25.2778 192.778 24.2222 192.333 24.6667z"/>
<path style="fill:#85c7ff; stroke:none;" d="M212.333 24.6667C212.278 24.7222 212.222 25.7778 212.667 25.3333C212.722 25.2778 212.778 24.2222 212.333 24.6667z"/>
<path style="fill:#c4ffff; stroke:none;" d="M221 24L221 34C222.346 30.793 222.346 27.207 221 24z"/>
<path style="fill:#b66600; stroke:none;" d="M13 25L14 26L13 25z"/>
<path style="fill:#66b6b6; stroke:none;" d="M18 25L19 26L18 25z"/>
<path style="fill:#ffdb90; stroke:none;" d="M27 25L28 26L27 25z"/>
<path style="fill:#000066; stroke:none;" d="M43 25L44 26L43 25z"/>
<path style="fill:#003a90; stroke:none;" d="M53 25L53 34C54.2561 31.0059 54.2561 27.9941 53 25z"/>
<path style="fill:#dbffff; stroke:none;" d="M54 25L54 34C55.2561 31.0059 55.2561 27.9941 54 25z"/>
<path style="fill:#903a00; stroke:none;" d="M60 25L61 26L60 25z"/>
<path style="fill:#3a90db; stroke:none;" d="M64 25L65 26L64 25z"/>
<path style="fill:#ffdb90; stroke:none;" d="M90 25L91 26L90 25z"/>
<path style="fill:#000066; stroke:none;" d="M106 25L107 26L106 25z"/>
<path style="fill:#3f6ae6; stroke:none;" d="M166 25L166 29C166.71 27.2405 166.71 26.7595 166 25z"/>
<path style="fill:#ffdb90; stroke:none;" d="M13 26L14 27L13 26z"/>
<path style="fill:#003a3a; stroke:none;" d="M18 26L19 27L18 26z"/>
<path style="fill:#db903a; stroke:none;" d="M27 26L28 27L27 26z"/>
<path style="fill:#66b6ff; stroke:none;" d="M44 26L45 27L44 26z"/>
<path style="fill:#db903a; stroke:none;" d="M60 26L61 27L60 26z"/>
<path style="fill:#003a90; stroke:none;" d="M64 26L65 27L64 26z"/>
<path style="fill:#db903a; stroke:none;" d="M90 26L91 27L90 26z"/>
<path style="fill:#66b6ff; stroke:none;" d="M107 26L108 27L107 26z"/>
<path style="fill:#a66acc; stroke:none;" d="M162.333 26.6667C162.278 26.7222 162.222 27.7778 162.667 27.3333C162.722 27.2778 162.778 26.2222 162.333 26.6667z"/>
<path style="fill:#c48acc; stroke:none;" d="M207 26L208 27L207 26z"/>
<path style="fill:#db903a; stroke:none;" d="M14 27L15 28L14 27z"/>
<path style="fill:#903a00; stroke:none;" d="M27 27L28 28L27 27z"/>
<path style="fill:#0066b6; stroke:none;" d="M44 27L45 28L44 27z"/>
<path style="fill:#660000; stroke:none;" d="M61 27L62 28L61 27z"/>
<path style="fill:#66b6ff; stroke:none;" d="M65 27L66 28L65 27z"/>
<path style="fill:#903a00; stroke:none;" d="M90 27L91 28L90 27z"/>
<path style="fill:#0066b6; stroke:none;" d="M107 27L108 28L107 27z"/>
<path style="fill:#a6a9dd; stroke:none;" d="M149 27L150 28L149 27z"/>
<path style="fill:#64a9f7; stroke:none;" d="M151 27L152 28L151 27z"/>
<path style="fill:#c48acc; stroke:none;" d="M193 27L194 28L193 27z"/>
<path style="fill:#a6e3ff; stroke:none;" d="M198 27L199 28L198 27z"/>
<path style="fill:#3f8aee; stroke:none;" d="M211 27L212 28L211 27z"/>
<path style="fill:#660000; stroke:none;" d="M15 28L16 29L15 28z"/>
<path style="fill:#ffdb90; stroke:none;" d="M26 28L27 29L26 28z"/>
<path style="fill:#000066; stroke:none;" d="M44 28L45 29L44 28z"/>
<path style="fill:#b66600; stroke:none;" d="M61 28L62 29L61 28z"/>
<path style="fill:#003a90; stroke:none;" d="M65 28L66 29L65 28z"/>
<path style="fill:#ffdb90; stroke:none;" d="M89 28L90 29L89 28z"/>
<path style="fill:#000066; stroke:none;" d="M107 28L108 29L107 28z"/>
<path style="fill:#c48acc; stroke:none;" d="M147 28L148 29L147 28z"/>
<path style="fill:#a6e3ff; stroke:none;" d="M152 28L153 29L152 28z"/>
<path style="fill:#a66acc; stroke:none;" d="M206 28L207 29L206 28z"/>
<path style="fill:#85c7ff; stroke:none;" d="M211 28L212 29L211 28z"/>
<path style="fill:#ffb666; stroke:none;" d="M15 29L16 30L15 29z"/>
<path style="fill:#db903a; stroke:none;" d="M26 29L27 30L26 29z"/>
<path style="fill:#90dbff; stroke:none;" d="M30 29L31 30L30 29z"/>
<path style="fill:#ffb666; stroke:none;" d="M40 29L41 30L40 29z"/>
<path style="fill:#66b6ff; stroke:none;" d="M45 29L46 30L45 29z"/>
<path style="fill:#ffdb90; stroke:none;" d="M61 29L62 30L61 29z"/>
<path style="fill:#90dbff; stroke:none;" d="M66 29L67 30L66 29z"/>
<path style="fill:#db903a; stroke:none;" d="M89 29L90 30L89 29z"/>
<path style="fill:#90dbff; stroke:none;" d="M93 29L94 30L93 29z"/>
<path style="fill:#ffb666; stroke:none;" d="M103 29L104 30L103 29z"/>
<path style="fill:#66b6ff; stroke:none;" d="M108 29L109 30L108 29z"/>
<path style="fill:#648ae6; stroke:none;" d="M153 29L154 30L153 29z"/>
<path style="fill:#a68ad5; stroke:none;" d="M160 29L161 30L160 29z"/>
<path style="fill:#85c7ff; stroke:none;" d="M166 29L167 30L166 29z"/>
<path style="fill:#c48acc; stroke:none;" d="M194 29L195 30L194 29z"/>
<path style="fill:#a6c7f7; stroke:none;" d="M200 29L201 30L200 29z"/>
<path style="fill:#3f8aee; stroke:none;" d="M210 29L211 30L210 29z"/>
<path style="fill:#903a00; stroke:none;" d="M16 30L17 31L16 30M26 30L27 31L26 30z"/>
<path style="fill:#003a90; stroke:none;" d="M29 30L30 31L29 30z"/>
<path style="fill:#903a00; stroke:none;" d="M41 30L42 31L41 30z"/>
<path style="fill:#0066b6; stroke:none;" d="M45 30L46 31L45 30z"/>
<path style="fill:#903a00; stroke:none;" d="M62 30L63 31L62 30z"/>
<path style="fill:#0066b6; stroke:none;" d="M66 30L67 31L66 30z"/>
<path style="fill:#3a90db; stroke:none;" d="M87 30L87 33C87.6961 31.4463 87.6961 31.5537 87 30z"/>
<path style="fill:#903a00; stroke:none;" d="M89 30L90 31L89 30z"/>
<path style="fill:#003a90; stroke:none;" d="M92 30L93 31L92 30z"/>
<path style="fill:#903a00; stroke:none;" d="M104 30L105 31L104 30z"/>
<path style="fill:#0066b6; stroke:none;" d="M108 30L109 31L108 30z"/>
<path style="fill:#c4ffff; stroke:none;" d="M137 30L137 34C137.71 32.2405 137.71 31.7595 137 30z"/>
<path style="fill:#c48acc; stroke:none;" d="M148 30L149 31L148 30z"/>
<path style="fill:#3f8aee; stroke:none;" d="M165 30L166 31L165 30z"/>
<path style="fill:#ffdb90; stroke:none;" d="M16 31L17 32L16 31M25 31L26 32L25 31z"/>
<path style="fill:#3a90db; stroke:none;" d="M29 31L30 32L29 31z"/>
<path style="fill:#db903a; stroke:none;" d="M41 31L42 32L41 31z"/>
<path style="fill:#000066; stroke:none;" d="M45 31L46 32L45 31z"/>
<path style="fill:#ffb666; stroke:none;" d="M62 31L63 32L62 31z"/>
<path style="fill:#90dbff; stroke:none;" d="M67 31L68 32L67 31z"/>
<path style="fill:#ffdb90; stroke:none;" d="M88 31L89 32L88 31z"/>
<path style="fill:#3a90db; stroke:none;" d="M92 31L93 32L92 31z"/>
<path style="fill:#db903a; stroke:none;" d="M104 31L105 32L104 31z"/>
<path style="fill:#000066; stroke:none;" d="M108 31L109 32L108 31z"/>
<path style="fill:#c48ad5; stroke:none;" d="M149 31L150 32L149 31z"/>
<path style="fill:#a6e3ff; stroke:none;" d="M209 31L210 32L209 31z"/>
<path style="fill:#b66600; stroke:none;" d="M17 32L18 33L17 32z"/>
<path style="fill:#db903a; stroke:none;" d="M25 32L26 33L25 32z"/>
<path style="fill:#90dbff; stroke:none;" d="M29 32L30 33L29 32z"/>
<path style="fill:#ffdb90; stroke:none;" d="M41 32L42 33L41 32z"/>
<path style="fill:#3a90db; stroke:none;" d="M46 32L47 33L46 32z"/>
<path style="fill:#660000; stroke:none;" d="M63 32L64 33L63 32z"/>
<path style="fill:#3a90db; stroke:none;" d="M67 32L68 33L67 32z"/>
<path style="fill:#db903a; stroke:none;" d="M88 32L89 33L88 32z"/>
<path style="fill:#90dbff; stroke:none;" d="M92 32L93 33L92 32z"/>
<path style="fill:#ffdb90; stroke:none;" d="M104 32L105 33L104 32z"/>
<path style="fill:#3a90db; stroke:none;" d="M109 32L110 33L109 32z"/>
<path style="fill:#85a9f7; stroke:none;" d="M163 32L164 33L163 32z"/>
<path style="fill:#856acc; stroke:none;" d="M197 32L198 33L197 32z"/>
<path style="fill:#648ae6; stroke:none;" d="M207 32L208 33L207 32z"/>
<path style="fill:#660000; stroke:none;" d="M18 33L19 34L18 33M25 33L26 34L25 33z"/>
<path style="fill:#003a90; stroke:none;" d="M28 33L29 34L28 33z"/>
<path style="fill:#903a00; stroke:none;" d="M42 33L43 34L42 33z"/>
<path style="fill:#003a90; stroke:none;" d="M46 33L47 34L46 33z"/>
<path style="fill:#db903a; stroke:none;" d="M63 33L64 34L63 33z"/>
<path style="fill:#000066; stroke:none;" d="M67 33L68 34L67 33z"/>
<path style="fill:#3a9090; stroke:none;" d="M87 33L88 34L87 33z"/>
<path style="fill:#660000; stroke:none;" d="M88 33L89 34L88 33z"/>
<path style="fill:#003a90; stroke:none;" d="M91 33L92 34L91 33z"/>
<path style="fill:#903a00; stroke:none;" d="M105 33L106 34L105 33z"/>
<path style="fill:#003a90; stroke:none;" d="M109 33L110 34L109 33z"/>
<path style="fill:#a68add; stroke:none;" d="M153 33L154 34L153 33z"/>
<path style="fill:#648ae6; stroke:none;" d="M160 33L161 34L160 33z"/>
<path style="fill:#a6c7f7; stroke:none;" d="M161 33L162 34L161 33z"/>
<path style="fill:#a68ad5; stroke:none;" d="M199 33L200 34L199 33z"/>
<path style="fill:#85a9e6; stroke:none;" d="M205 33L206 34L205 33z"/>
</svg>
